<?xml version="1.0" standalone="no"?><!DOCTYPE svg PUBLIC "-//W3C//DTD SVG 1.1//EN" "http://www.w3.org/Graphics/SVG/1.1/DTD/svg11.dtd"><svg t="1575533582137" class="icon" viewBox="0 0 1024 1024" version="1.1" xmlns="http://www.w3.org/2000/svg" p-id="1090" xmlns:xlink="http://www.w3.org/1999/xlink" width="200" height="200"><defs><style type="text/css"></style></defs><path d="M1019.526151 538.709772l-0.752388-50.409992c-0.752388-24.828802-10.533431-48.152829-28.590742-65.457752-18.057311-17.304923-41.381337-26.333578-66.21014-26.333578l-24.828802 0.752388c-8.276267-27.085966-19.562087-53.419544-33.10507-77.495959l21.066863-19.562087c18.057311-16.552535 28.590742-39.876561 30.095518-64.705364 0.752388-24.828802-7.52388-48.905217-24.828803-66.962527l-34.609845-37.619398c-34.609846-37.619398-94.048494-39.876561-131.667892-5.266715l-28.590742 26.333578c-23.324026-12.790595-47.400441-23.324026-72.981631-31.600294v-24.828802C624.522477 44.390889 582.388752 2.257164 531.226371 2.257164H481.568766c-51.162381 0-93.296106 42.133725-93.296105 93.296106v19.562086c-27.085966 7.52388-53.419544 17.304923-79.000735 30.095518l-17.304923-16.552535c-18.057311-16.552535-42.133725-25.58119-66.962527-24.828802-24.828802 0.752388-48.152829 11.285819-64.705364 30.095518l-34.609846 37.619398c-34.609846 37.619398-32.352682 97.058046 5.266716 131.667891l4.514327 3.76194c-17.304923 29.34313-30.847906 60.191036-40.628949 93.296105-24.828802 0-48.152829 9.028655-66.210139 26.333579C10.57391 443.908891 0.792866 467.232917 0.040478 492.061719V541.719324c-0.752388 24.828802 9.028655 48.152829 26.333579 66.21014 17.304923 18.057311 40.628949 27.838354 65.457751 28.590742h2.257164c9.028655 31.600294 21.819251 61.695812 37.619398 90.286554l-5.266716 6.019103c-16.552535 18.057311-25.58119 42.133725-24.828802 66.962528 0.752388 24.828802 11.285819 48.152829 30.095518 64.705364l37.619397 34.609845c18.057311 16.552535 40.628949 24.828802 63.200588 24.828803 24.828802 0 50.409993-9.781043 68.467303-30.095518l1.504776-1.504776c28.590742 15.047759 57.933872 26.333578 88.781778 34.609845v2.257164c0 51.162381 42.133725 93.296106 93.296106 93.296106h50.409993c51.162381 0 93.296106-42.133725 93.296106-93.296106v-9.028655c29.34313-9.781043 57.181484-21.819251 84.26745-37.619398l7.52388 8.276268c16.552535 18.057311 39.876561 28.590742 64.705363 30.095518 24.828802 0.752388 48.905217-7.52388 66.962528-24.828803l37.619397-34.609845c18.057311-16.552535 28.590742-39.876561 30.095518-64.705364 0.752388-24.828802-7.52388-48.905217-24.828802-66.962527l-19.562087-21.066863c12.038207-24.076414 21.819251-48.905217 28.590742-74.486407l25.581191-0.752388c50.409993-0.752388 91.79133-43.638501 90.286554-94.800882z m-75.238795 19.562087c-4.514328 4.514328-11.285819 6.771492-17.304923 6.771491l-51.162381 0.752388c-15.800147 0-29.34313 11.285819-32.352682 27.085967-7.52388 36.114622-21.066863 71.476855-39.876561 103.077149-7.52388 12.790595-6.019104 29.34313 4.514328 39.876561l36.114621 39.124174c4.514328 5.266716 6.771492 11.285819 6.771492 18.05731 0 6.771492-3.009552 12.790595-8.276267 17.304923l-37.619398 34.609846c-5.266716 4.514328-11.285819 6.771492-18.057311 6.771491-6.771492 0-12.790595-3.009552-17.304923-8.276267l-27.085966-29.34313c-11.285819-12.790595-30.095518-14.295371-44.390889-4.514328-34.609846 24.076414-72.229243 41.381337-112.858192 51.162381-15.047759 3.76194-25.58119 17.304923-25.581191 33.10507v34.609845c0 14.295371-11.285819 25.58119-25.58119 25.581191h-50.409993c-14.295371 0-25.58119-11.285819-25.58119-25.581191v-29.34313c0-16.552535-11.285819-30.095518-27.838354-33.10507-42.133725-8.276267-81.257899-23.324026-118.124908-45.895664-13.542983-8.276267-31.600294-6.019104-42.886113 6.019103l-19.562087 21.066863c-9.781043 10.533431-25.58119 10.533431-35.362234 1.504776l-37.619397-34.609846c-5.266716-4.514328-7.52388-10.533431-8.276268-17.304923 0-6.771492 2.257164-13.542983 6.771492-18.057311l22.571638-24.828802c10.533431-11.285819 12.038207-28.590742 3.76194-41.381337-23.324026-36.114622-39.876561-75.238795-48.905217-116.620133-3.009552-15.047759-16.552535-26.333578-32.352682-26.333578l-28.590742-0.752388c-14.295371 0-24.828802-12.038207-24.828802-25.58119l0.752388-50.409993c0-6.771492 2.257164-12.790595 6.771492-17.304923 5.266716-5.266716 11.285819-7.52388 18.809698-7.523879l26.333579 0.752388c15.800147 0 30.095518-10.533431 33.857457-26.333578 9.781043-43.638501 27.838354-84.26745 53.419545-121.13446 9.781043-13.542983 7.52388-33.10507-5.266716-44.390889l-25.58119-23.324027c-10.533431-9.781043-10.533431-25.58119-1.504776-35.362233l34.609846-37.619398c4.514328-5.266716 10.533431-7.52388 17.304922-8.276267 6.771492 0 13.542983 2.257164 18.057311 6.771491l35.362234 32.352682c11.285819 9.781043 27.085966 12.038207 39.876561 4.514328 33.857458-19.562087 69.972079-33.10507 107.591477-40.62895 15.800147-3.009552 27.085966-17.304923 27.085966-33.105069v-46.648053c0-14.295371 11.285819-25.58119 25.581191-25.581191h50.409992c14.295371 0 25.58119 11.285819 25.581191 25.581191v50.409992c0 15.800147 10.533431 29.34313 25.58119 33.10507 36.114622 9.028655 69.972079 23.324026 101.572373 43.638501 12.790595 8.276267 30.095518 6.771492 41.381337-3.76194l47.400441-43.638501c10.533431-9.781043 26.333578-9.028655 35.362234 1.504776l34.609846 37.619398c4.514328 5.266716 6.771492 11.285819 6.771491 18.057311 0 6.771492-3.009552 12.790595-8.276267 17.304922l-41.381338 38.371786c-12.038207 11.285819-14.295371 29.34313-5.266715 42.886113 21.066863 33.10507 36.86701 69.972079 45.895665 108.343865 3.76194 15.800147 17.304923 26.333578 33.857457 26.333578l51.162381-0.752388c6.771492 0 12.790595 2.257164 18.057311 6.771492 4.514328 4.514328 7.52388 11.285819 7.523879 18.05731l0.752388 50.409993c0.752388 6.771492-1.504776 13.542983-6.771491 18.057311z m0 0" fill="" p-id="1091"></path><path d="M509.407121 367.917708c-81.257899 0-147.468038 66.21014-147.468039 147.468038s66.21014 147.468038 147.468039 147.468038 147.468038-66.21014 147.468038-147.468038-66.21014-147.468038-147.468038-147.468038z m0 227.22116c-44.390889 0-79.753123-36.114622-79.753123-79.753122 0-44.390889 36.114622-79.753123 79.753123-79.753123 44.390889 0 79.753123 36.114622 79.753122 79.753123s-35.362234 79.753123-79.753122 79.753122z m0 0" fill="" p-id="1092"></path></svg>