<?xml version="1.0" standalone="no"?><!DOCTYPE svg PUBLIC "-//W3C//DTD SVG 1.1//EN" "http://www.w3.org/Graphics/SVG/1.1/DTD/svg11.dtd"><svg t="1575533586614" class="icon" viewBox="0 0 1024 1024" version="1.1" xmlns="http://www.w3.org/2000/svg" p-id="1209" xmlns:xlink="http://www.w3.org/1999/xlink" width="200" height="200"><defs><style type="text/css"></style></defs><path d="M546.133333 635.259259c-3.792593 0-5.688889 0-9.481481-1.896296L159.288889 420.977778c-5.688889-3.792593-9.481481-9.481481-9.481482-17.066667s3.792593-13.274074 9.481482-17.066667L536.651852 185.837037c5.688889-3.792593 13.274074-3.792593 17.066667 0l377.362962 202.903704c5.688889 3.792593 9.481481 9.481481 9.481482 17.066666s-3.792593 13.274074-9.481482 17.066667l-375.466666 208.592593c-1.896296 1.896296-5.688889 3.792593-9.481482 3.792592zM208.592593 405.807407l337.54074 187.733334 337.540741-187.733334-337.540741-182.044444L208.592593 405.807407z" fill="" p-id="1210"></path><path d="M546.133333 786.962963c-3.792593 0-5.688889 0-9.481481-1.896296L159.288889 574.577778c-9.481481-5.688889-11.377778-17.066667-7.585185-26.548148 5.688889-9.481481 17.066667-13.274074 26.548148-7.585186l367.881481 204.8 367.881482-204.8c9.481481-5.688889 20.859259-1.896296 26.548148 7.585186 5.688889 9.481481 1.896296 20.859259-7.585185 26.548148L555.614815 785.066667c-1.896296 1.896296-5.688889 1.896296-9.481482 1.896296z" fill="" p-id="1211"></path><path d="M546.133333 940.562963c-3.792593 0-5.688889 0-9.481481-1.896296L159.288889 728.177778c-9.481481-5.688889-11.377778-17.066667-7.585185-26.548148 5.688889-9.481481 17.066667-13.274074 26.548148-7.585186l367.881481 204.8 367.881482-204.8c9.481481-5.688889 20.859259-1.896296 26.548148 7.585186 5.688889 9.481481 1.896296 20.859259-7.585185 26.548148L555.614815 938.666667c-1.896296 1.896296-5.688889 1.896296-9.481482 1.896296z" fill="" p-id="1212"></path></svg>