<?xml version="1.0" standalone="no"?><!DOCTYPE svg PUBLIC "-//W3C//DTD SVG 1.1//EN" "http://www.w3.org/Graphics/SVG/1.1/DTD/svg11.dtd"><svg t="1575453235037" class="icon" viewBox="0 0 1024 1024" version="1.1" xmlns="http://www.w3.org/2000/svg" p-id="2053" xmlns:xlink="http://www.w3.org/1999/xlink" width="200" height="200"><defs><style type="text/css"></style></defs><path d="M513.5 921.6c-38.3 0-87.4-26.1-121.9-48-48.2-30.6-99.4-73.2-144.3-120-67.2-70-179.9-212.1-179.9-376.3 0-66 26.3-134.2 72.2-187.2 23.3-26.9 50.1-48.2 79.7-63.3 32.1-16.4 66-24.8 100.6-24.8 73.4 0 143.3 31.8 191.6 87.1 0.2 0.2 0.6 0.7 1.5 0.7s1.3-0.5 1.5-0.7c48.4-55.4 118.2-87.1 191.6-87.1 34.7 0 68.5 8.4 100.5 24.9 29.6 15.3 56.4 36.8 79.6 64 45.6 53.5 71.7 123.1 71.7 191 0 161.7-112.2 302.7-179.1 372.3-44.7 46.6-95.8 89-143.7 119.5-34.4 21.8-83.4 47.9-121.6 47.9zM319.9 158c-50.6 0-99.6 24.4-138 68.8-18 20.8-32.9 45.4-43 71.2-10.2 26-15.6 53.5-15.6 79.3 0 56.9 16.3 117.1 48.3 178.9 27.8 53.7 67.9 108.6 116 158.6 41.8 43.6 89.4 83.2 133.9 111.5 45.6 29 77.4 39.3 91.9 39.3s46.2-10.3 91.6-39.2c44.3-28.1 91.6-67.6 133.4-111 47.8-49.8 87.7-104.2 115.4-157.3 31.9-61.1 48-120.4 48-176.2 0-54.8-21.3-111.2-58.3-154.7-38-44.6-86.8-69.2-137.5-69.2-57.3 0-111.7 24.8-149.5 68-11 12.6-26.9 19.8-43.6 19.8s-32.6-7.2-43.6-19.8c-37.6-43.2-92.1-68-149.4-68z" fill="" p-id="2054"></path></svg>